# xmcd CD database file
#
# Track frame offsets:
#	150
#	33092
#	81293
#	103286
#	146202
#	204630
#	235965
#	247295
#	264270
#
# Disc length: 4157 seconds
#
# Revision: 0
# Processed by: cddbd v1.5.2PL0 Copyright (c) Steve Scherf et al.
# Submitted via: CDex 1.70beta2
#
DISCID=83103b09
DTITLE=Cannonball Adderley - Complete Live in Tokyo 1963 [CD2)
DYEAR=1963
DGENRE=Jazz
TTITLE0=Autumn Leaves
TTITLE1=The Weaver
TTITLE2=Bohemia After Dark #2
TTITLE3=Nippon Soul
TTITLE4=Brother John
TTITLE5=Come Sunday
TTITLE6=Tengo Tango
TTITLE7=Easy To Love #2
TTITLE8=The Jive Samba #2
EXTD=YEAR: 1963
EXTT0=
EXTT1=
EXTT2=
EXTT3=
EXTT4=
EXTT5=
EXTT6=
EXTT7=
EXTT8=
PLAYORDER=
